<svg width="22" height="22" viewBox="0 0 22 22" fill="none" xmlns="http://www.w3.org/2000/svg">
<rect width="22" height="22" rx="6" fill="#035AA6"/>
<path fill-rule="evenodd" clip-rule="evenodd" d="M9.66669 13V14.3333H7.00002C5.15907 14.3333 3.66669 12.8409 3.66669 11C3.66669 9.15901 5.15907 7.66663 7.00002 7.66663H9.66669V8.99996H7.00002C5.89545 8.99996 5.00002 9.89539 5.00002 11C5.00002 12.1045 5.89545 13 7.00002 13H9.66669ZM12.3334 8.99996V7.66663H15C16.841 7.66663 18.3334 9.15901 18.3334 11C18.3334 12.8409 16.841 14.3333 15 14.3333H12.3334V13H15C16.1046 13 17 12.1045 17 11C17 9.89539 16.1046 8.99996 15 8.99996H12.3334ZM7.66669 10.3333V11.6666H14.3334V10.3333H7.66669Z" fill="white"/>
</svg>
