<svg width="22" height="22" viewBox="0 0 22 22" fill="none" xmlns="http://www.w3.org/2000/svg">
<rect width="22" height="22" rx="6" fill="#035AA6"/>
<path d="M16.0886 8.33132C16.0973 8.44799 16.0973 8.56399 16.0973 8.67999C16.0973 12.23 13.3953 16.3207 8.45731 16.3207C6.93598 16.3207 5.52265 15.88 4.33331 15.1147C4.54931 15.1393 4.75731 15.148 4.98198 15.148C6.19064 15.1509 7.36508 14.7467 8.31598 14.0007C7.75559 13.9905 7.21236 13.8056 6.76214 13.4718C6.31191 13.138 5.97717 12.6719 5.80465 12.1387C5.97065 12.1633 6.13731 12.18 6.31198 12.18C6.55265 12.18 6.79465 12.1467 7.01931 12.0887C6.41115 11.9659 5.8643 11.6362 5.47173 11.1558C5.07916 10.6753 4.86511 10.0738 4.86598 9.45332V9.41999C5.22398 9.61932 5.63931 9.74399 6.07931 9.76066C5.71071 9.51571 5.40846 9.18334 5.19954 8.79318C4.99062 8.40303 4.88152 7.96723 4.88198 7.52466C4.88198 7.02599 5.01465 6.56866 5.24731 6.16999C5.92207 7 6.76365 7.67903 7.71754 8.16309C8.67143 8.64716 9.71635 8.92547 10.7846 8.97999C10.7433 8.77999 10.718 8.57266 10.718 8.36466C10.7178 8.01196 10.7871 7.66269 10.922 7.33682C11.0569 7.01094 11.2547 6.71484 11.5041 6.46545C11.7535 6.21606 12.0496 6.01826 12.3755 5.88337C12.7014 5.74849 13.0506 5.67915 13.4033 5.67932C14.1766 5.67932 14.8746 6.00332 15.3653 6.52732C15.9665 6.41107 16.543 6.1916 17.0693 5.87865C16.8689 6.4992 16.4492 7.02539 15.8886 7.35866C16.4218 7.29784 16.9429 7.15762 17.4346 6.94266C17.0674 7.47805 16.6123 7.94755 16.0886 8.33132Z" fill="white"/>
</svg>
