<svg width="22" height="22" viewBox="0 0 22 22" fill="none" xmlns="http://www.w3.org/2000/svg">
<rect width="22" height="22" rx="6" fill="#035AA6"/>
<path d="M17.386 7.57005C17.4793 7.26005 17.386 7.03271 16.9446 7.03271H15.4826C15.1106 7.03271 14.9406 7.22938 14.8473 7.44538C14.8473 7.44538 14.104 9.25805 13.0506 10.4334C12.7106 10.7754 12.5553 10.8834 12.37 10.8834C12.2773 10.8834 12.1426 10.7754 12.1426 10.4654V7.57005C12.1426 7.19805 12.0353 7.03271 11.7253 7.03271H9.42798C9.19598 7.03271 9.05598 7.20471 9.05598 7.36871C9.05598 7.72071 9.58265 7.80205 9.63665 8.79405V10.946C9.63665 11.4174 9.55198 11.5034 9.36531 11.5034C8.86998 11.5034 7.66465 9.68405 6.94931 7.60138C6.80998 7.19671 6.66931 7.03338 6.29598 7.03338H4.83465C4.41665 7.03338 4.33331 7.23005 4.33331 7.44605C4.33331 7.83405 4.82865 9.75405 6.64065 12.2934C7.84865 14.0274 9.54931 14.9674 11.0986 14.9674C12.0273 14.9674 12.142 14.7587 12.142 14.3987V13.088C12.142 12.6707 12.2306 12.5867 12.5246 12.5867C12.7406 12.5867 13.1126 12.696 13.98 13.5314C14.9706 14.522 15.1346 14.9667 15.6913 14.9667H17.1526C17.57 14.9667 17.7786 14.758 17.6586 14.346C17.5273 13.936 17.054 13.3394 16.426 12.6334C16.0846 12.2307 15.5746 11.7974 15.4193 11.5807C15.2026 11.3014 15.2653 11.178 15.4193 10.93C15.42 10.9307 17.2006 8.42272 17.386 7.57005Z" fill="white"/>
</svg>
