<svg width="22" height="22" viewBox="0 0 22 22" fill="none" xmlns="http://www.w3.org/2000/svg">
<rect width="22" height="22" rx="6" fill="#035AA6"/>
<path fill-rule="evenodd" clip-rule="evenodd" d="M15.2687 6.75535C14.7142 6.19728 14.0546 5.75476 13.3279 5.45345C12.6012 5.15214 11.822 4.99802 11.0353 5.00002C7.73667 5.00002 5.05133 7.68469 5.05 10.9847C5.05 12.0394 5.32533 13.0687 5.84867 13.9767L5 17.0774L8.17267 16.2447C9.05026 16.7224 10.0335 16.9729 11.0327 16.9734H11.0353C14.3333 16.9734 17.0187 14.2887 17.02 10.9887C17.0223 10.2023 16.8687 9.42335 16.5681 8.69673C16.2674 7.9701 15.8258 7.31027 15.2687 6.75535ZM11.0353 15.9634H11.0333C10.1423 15.9634 9.26776 15.7237 8.50133 15.2694L8.32 15.1614L6.43733 15.6554L6.93933 13.82L6.82133 13.632C6.32319 12.839 6.05949 11.9212 6.06067 10.9847C6.062 8.24202 8.29333 6.01069 11.0373 6.01069C11.6908 6.00923 12.3381 6.13741 12.9418 6.38779C13.5454 6.63817 14.0934 7.00578 14.554 7.46935C15.0171 7.93071 15.3841 8.47928 15.6339 9.08335C15.8837 9.68742 16.0113 10.335 16.0093 10.9887C16.008 13.7314 13.7767 15.9634 11.0353 15.9634ZM13.764 12.2374C13.614 12.162 12.8793 11.8007 12.742 11.7507C12.6053 11.7007 12.506 11.676 12.406 11.8254C12.306 11.9747 12.0193 12.3114 11.932 12.4114C11.8447 12.5114 11.7573 12.5234 11.608 12.4487C11.4587 12.374 10.9767 12.216 10.4053 11.7067C9.96067 11.31 9.66067 10.8207 9.57333 10.6707C9.486 10.5207 9.564 10.44 9.63933 10.3654C9.70667 10.2987 9.78867 10.1907 9.86333 10.1034C9.938 10.016 9.96267 9.95402 10.0127 9.85402C10.0627 9.75402 10.038 9.66669 10 9.59202C9.96267 9.51669 9.66333 8.78069 9.53867 8.48135C9.418 8.19135 9.29467 8.23002 9.20267 8.22602C9.10738 8.22212 9.01203 8.22034 8.91667 8.22069C8.84084 8.22262 8.76622 8.2402 8.69751 8.27232C8.62879 8.30444 8.56745 8.35041 8.51733 8.40735C8.38 8.55735 7.994 8.91869 7.994 9.65469C7.994 10.3907 8.53 11.102 8.60467 11.202C8.67933 11.302 9.65933 12.812 11.1593 13.46C11.5167 13.614 11.7953 13.706 12.012 13.7754C12.37 13.8894 12.696 13.8727 12.954 13.8347C13.2413 13.792 13.8387 13.4734 13.9633 13.124C14.088 12.7747 14.088 12.4754 14.0507 12.4127C14.0133 12.35 13.9127 12.312 13.764 12.2374Z" fill="white"/>
</svg>
