<svg width="16" height="16" viewBox="0 0 16 16" fill="none" xmlns="http://www.w3.org/2000/svg">
<path d="M4.11996 13.3333C4.92261 13.3333 5.57329 12.6826 5.57329 11.88C5.57329 11.0773 4.92261 10.4266 4.11996 10.4266C3.31731 10.4266 2.66663 11.0773 2.66663 11.88C2.66663 12.6826 3.31731 13.3333 4.11996 13.3333Z" fill="#035AA6"/>
<path d="M3.60925 3.00226C3.09037 2.95547 2.66663 3.38231 2.66663 3.90329C2.66663 4.42428 3.09061 4.84112 3.60845 4.89831C7.54274 5.33279 10.6671 8.45718 11.1016 12.3915C11.1588 12.9093 11.5756 13.3333 12.0966 13.3333C12.6176 13.3333 13.0444 12.9096 12.9977 12.3907C12.549 7.41578 8.58414 3.45091 3.60925 3.00226ZM3.60716 6.79972C3.09139 6.72622 2.66663 7.15564 2.66663 7.67663C2.66663 8.19762 3.09325 8.61012 3.60388 8.71345C5.45306 9.08765 6.91227 10.5469 7.28647 12.396C7.3898 12.9067 7.8023 13.3333 8.32329 13.3333C8.84428 13.3333 9.27371 12.9085 9.2002 12.3928C8.78784 9.49922 6.5007 7.21208 3.60716 6.79972Z" fill="#035AA6"/>
</svg>
